<svg width="19" height="17" viewBox="0 0 19 17" fill="none" xmlns="http://www.w3.org/2000/svg">
<path d="M9.38281 5.5H9.5C10.1771 5.5 10.763 5.7474 11.2578 6.24219C11.7526 6.73698 12 7.32292 12 8V8.15625L9.38281 5.5ZM5.78906 6.16406C5.47656 6.78906 5.32031 7.40104 5.32031 8C5.32031 9.14583 5.72396 10.1354 6.53125 10.9688C7.36458 11.776 8.35417 12.1797 9.5 12.1797C10.099 12.1797 10.7109 12.0234 11.3359 11.7109L10.0469 10.4219C9.83854 10.474 9.65625 10.5 9.5 10.5C8.82292 10.5 8.23698 10.2526 7.74219 9.75781C7.2474 9.26302 7 8.67708 7 8C7 7.84375 7.02604 7.66146 7.07812 7.45312L5.78906 6.16406ZM1.17969 1.55469L2.23438 0.5L17 15.2656L15.9453 16.3203C15.8151 16.1901 15.3984 15.7865 14.6953 15.1094C14.0182 14.4323 13.4974 13.9115 13.1328 13.5469C12.013 14.0156 10.8021 14.25 9.5 14.25C7.44271 14.25 5.58073 13.6771 3.91406 12.5312C2.2474 11.3854 1.04948 9.875 0.320312 8C0.606771 7.32292 1.04948 6.58073 1.64844 5.77344C2.27344 4.9401 2.8724 4.30208 3.44531 3.85938C3.13281 3.54688 2.6901 3.10417 2.11719 2.53125C1.57031 1.95833 1.25781 1.63281 1.17969 1.55469ZM9.5 3.82031C8.97917 3.82031 8.47135 3.92448 7.97656 4.13281L6.17969 2.33594C7.19531 1.94531 8.30208 1.75 9.5 1.75C11.5573 1.75 13.4062 2.32292 15.0469 3.46875C16.7135 4.61458 17.9115 6.125 18.6406 8C18.0156 9.53646 17.0651 10.8516 15.7891 11.9453L13.3672 9.52344C13.5755 9.02865 13.6797 8.52083 13.6797 8C13.6797 6.85417 13.263 5.8776 12.4297 5.07031C11.6224 4.23698 10.6458 3.82031 9.5 3.82031Z" fill="white" fill-opacity="0.75"/>
</svg>
