<svg width="61" height="74" viewBox="0 0 61 74" fill="none" xmlns="http://www.w3.org/2000/svg">
<path d="M50.1164 0C33.4109 8.25094 16.7055 16.5031 0 24.7553C0.0050592 26.2971 0.00885359 27.8401 0.0139128 29.3819C0.00885359 29.3844 0.0050592 29.3869 0 29.3895C0.0050592 31.104 0.0101184 32.8184 0.0164424 34.5329C0.0113832 34.5354 0.0050592 34.538 0 34.5405C0.0050592 36.0822 0.00885359 37.6253 0.0139128 39.1671C0.00885359 39.1696 0.0050592 39.1721 0 39.1746C0.0215016 46.3981 0.044268 53.6229 0.0670344 60.8464C3.56547 63.6866 7.0639 66.5256 10.5636 69.3659C11.817 68.699 13.0717 68.0321 14.3251 67.3652C17.3151 69.5764 20.3051 71.7888 23.2951 74C26.6885 68.8578 30.0807 63.7156 33.4742 58.5722C42.649 53.8271 51.8239 49.082 61 44.337V7.874C57.3726 5.24934 53.7438 2.62467 50.1164 0ZM15.1245 63.3223L14.1038 64.8389H13.9609C13.9254 64.2199 13.8888 63.6009 13.8533 62.9819C13.7572 61.3154 13.6611 59.65 13.565 57.9847C13.4878 56.6598 13.4119 55.3336 13.3348 54.0087C13.3183 54.0124 13.3019 54.0124 13.2867 54.02L7.34722 56.9712L3.41116 58.9264L1.78463 59.7345V26.0361L49.3335 2.41162V36.11L25.4516 47.9752C22.7803 51.945 20.1103 55.9135 17.4391 59.8833C16.6675 61.0292 15.896 62.1764 15.1245 63.3223Z" fill="#AE7AFF"/>
<path d="M7.40034 38.2209V31.0428L4.75185 32.3538V29.0182L13.8812 24.5V27.8357L11.2251 29.1493V36.3274L7.39907 38.2209H7.40034Z" fill="#AE7AFF"/>
<path d="M7.40034 38.2209V31.0428L4.75185 32.3538V29.0182L13.8812 24.5V27.8357L11.2251 29.1493V36.3274L7.39907 38.2209H7.40034Z" fill="white" fill-opacity="0.8"/>
<path d="M15.2497 34.3343V23.8193L19.0757 21.9258V32.4408L15.2497 34.3343Z" fill="#AE7AFF"/>
<path d="M15.2497 34.3343V23.8193L19.0757 21.9258V32.4408L15.2497 34.3343Z" fill="white" fill-opacity="0.8"/>
<path d="M27.6447 28.2C27.1793 27.4134 26.7948 26.8499 26.4937 26.5082C26.1927 26.1666 25.9005 25.9611 25.6185 25.893C25.3364 25.825 24.9924 25.8766 24.5852 26.0493V29.7153L20.7591 31.6088V21.0937L24.5852 19.2003V22.691C24.9532 22.4754 25.2644 22.2006 25.5198 21.869C25.7753 21.5375 26.0321 21.0748 26.2926 20.4823C26.5519 19.8898 26.8808 19.0175 27.2779 17.8677L31.4859 15.7852C31.1811 16.6197 30.9142 17.3257 30.684 17.9018C30.4538 18.4779 30.2198 19.0074 29.9821 19.4889C29.7443 19.9705 29.5229 20.3676 29.3193 20.6777C29.1157 20.9891 28.8842 21.2778 28.6237 21.5463C28.3631 21.8136 28.1013 22.0405 27.837 22.2258C27.5726 22.4111 27.2564 22.6015 26.8884 22.7981V23.6629C27.3095 23.4738 27.6751 23.3352 27.9849 23.2457C28.2935 23.1562 28.5958 23.1146 28.8893 23.1209C29.184 23.1272 29.4458 23.1826 29.676 23.2885C29.9062 23.3944 30.149 23.5722 30.4045 23.823C30.66 24.0739 30.9079 24.3739 31.1507 24.7257C31.3936 25.0774 31.6693 25.5211 31.9779 26.0569L27.6447 28.2013V28.2Z" fill="#AE7AFF"/>
<path d="M27.6447 28.2C27.1793 27.4134 26.7948 26.8499 26.4937 26.5082C26.1927 26.1666 25.9005 25.9611 25.6185 25.893C25.3364 25.825 24.9924 25.8766 24.5852 26.0493V29.7153L20.7591 31.6088V21.0937L24.5852 19.2003V22.691C24.9532 22.4754 25.2644 22.2006 25.5198 21.869C25.7753 21.5375 26.0321 21.0748 26.2926 20.4823C26.5519 19.8898 26.8808 19.0175 27.2779 17.8677L31.4859 15.7852C31.1811 16.6197 30.9142 17.3257 30.684 17.9018C30.4538 18.4779 30.2198 19.0074 29.9821 19.4889C29.7443 19.9705 29.5229 20.3676 29.3193 20.6777C29.1157 20.9891 28.8842 21.2778 28.6237 21.5463C28.3631 21.8136 28.1013 22.0405 27.837 22.2258C27.5726 22.4111 27.2564 22.6015 26.8884 22.7981V23.6629C27.3095 23.4738 27.6751 23.3352 27.9849 23.2457C28.2935 23.1562 28.5958 23.1146 28.8893 23.1209C29.184 23.1272 29.4458 23.1826 29.676 23.2885C29.9062 23.3944 30.149 23.5722 30.4045 23.823C30.66 24.0739 30.9079 24.3739 31.1507 24.7257C31.3936 25.0774 31.6693 25.5211 31.9779 26.0569L27.6447 28.2013V28.2Z" fill="white" fill-opacity="0.8"/>
<path d="M32.0955 22.4868V20.1698L37.3482 17.5703V19.8874L32.0955 22.4868Z" fill="#AE7AFF"/>
<path d="M32.0955 22.4868V20.1698L37.3482 17.5703V19.8874L32.0955 22.4868Z" fill="white" fill-opacity="0.8"/>
<path d="M7.40034 52.592V45.4139L4.75185 46.7249V43.3893L13.8812 38.8711V42.2068L11.2251 43.5204V50.6985L7.39907 52.592H7.40034Z" fill="#AE7AFF"/>
<path d="M7.40034 52.592V45.4139L4.75185 46.7249V43.3893L13.8812 38.8711V42.2068L11.2251 43.5204V50.6985L7.39907 52.592H7.40034Z" fill="white" fill-opacity="0.8"/>
<path d="M17.5377 47.5725L13.5801 49.5315L17.2215 37.215L21.7748 34.9609L25.4161 43.6733L21.4586 45.6323L21.0981 44.6225L17.8982 46.2059L17.5377 47.5725ZM18.5382 43.3089L20.4657 42.3546C20.2836 41.7647 20.1584 41.2465 20.0863 40.7977C20.0154 40.3489 19.9699 39.7552 19.9497 39.0177L19.0453 39.4652C19.02 40.2304 18.9758 40.8708 18.9087 41.3877C18.8417 41.9046 18.719 42.545 18.5369 43.3089H18.5382Z" fill="#AE7AFF"/>
<path d="M17.5377 47.5725L13.5801 49.5315L17.2215 37.215L21.7748 34.9609L25.4161 43.6733L21.4586 45.6323L21.0981 44.6225L17.8982 46.2059L17.5377 47.5725ZM18.5382 43.3089L20.4657 42.3546C20.2836 41.7647 20.1584 41.2465 20.0863 40.7977C20.0154 40.3489 19.9699 39.7552 19.9497 39.0177L19.0453 39.4652C19.02 40.2304 18.9758 40.8708 18.9087 41.3877C18.8417 41.9046 18.719 42.545 18.5369 43.3089H18.5382Z" fill="white" fill-opacity="0.8"/>
<path d="M26.4899 43.1429V32.6279L30.316 30.7344V37.9125L33.9421 36.1173V39.453L26.4899 43.1404V43.1429Z" fill="#AE7AFF"/>
<path d="M26.4899 43.1429V32.6279L30.316 30.7344V37.9125L33.9421 36.1173V39.453L26.4899 43.1404V43.1429Z" fill="white" fill-opacity="0.8"/>
<path d="M42.1747 35.3836C41.7093 34.597 41.3248 34.0335 41.0238 33.6918C40.7227 33.3502 40.4306 33.1447 40.1485 33.0766C39.8665 33.0085 39.5224 33.0602 39.1152 33.2329V36.8989L35.2892 38.7924V28.2773L39.1152 26.3838V29.8746C39.4832 29.659 39.7944 29.3842 40.0499 29.0526C40.3053 28.7211 40.5621 28.2584 40.8226 27.6659C41.0819 27.0734 41.4108 26.2011 41.8079 25.0513L46.0159 22.9688C45.7111 23.8033 45.4442 24.5093 45.214 25.0854C44.9838 25.6615 44.7498 26.191 44.5121 26.6725C44.2743 27.1541 44.0529 27.5512 43.8506 27.8613C43.6469 28.1727 43.4155 28.4614 43.1549 28.7299C42.8944 28.9972 42.6326 29.2241 42.3682 29.4094C42.1039 29.5947 41.7877 29.7851 41.4196 29.9817V30.8465C41.8408 30.6574 42.2063 30.5188 42.5162 30.4293C42.8248 30.3398 43.1271 30.2982 43.4205 30.3045C43.7152 30.3108 43.9771 30.3662 44.2072 30.4721C44.4374 30.578 44.6803 30.7558 44.9358 31.0066C45.1913 31.2575 45.4392 31.5575 45.682 31.9093C45.9248 32.261 46.2006 32.7047 46.5092 33.2405L42.176 35.3849L42.1747 35.3836Z" fill="#AE7AFF"/>
<path d="M42.1747 35.3836C41.7093 34.597 41.3248 34.0335 41.0238 33.6918C40.7227 33.3502 40.4306 33.1447 40.1485 33.0766C39.8665 33.0085 39.5224 33.0602 39.1152 33.2329V36.8989L35.2892 38.7924V28.2773L39.1152 26.3838V29.8746C39.4832 29.659 39.7944 29.3842 40.0499 29.0526C40.3053 28.7211 40.5621 28.2584 40.8226 27.6659C41.0819 27.0734 41.4108 26.2011 41.8079 25.0513L46.0159 22.9688C45.7111 23.8033 45.4442 24.5093 45.214 25.0854C44.9838 25.6615 44.7498 26.191 44.5121 26.6725C44.2743 27.1541 44.0529 27.5512 43.8506 27.8613C43.6469 28.1727 43.4155 28.4614 43.1549 28.7299C42.8944 28.9972 42.6326 29.2241 42.3682 29.4094C42.1039 29.5947 41.7877 29.7851 41.4196 29.9817V30.8465C41.8408 30.6574 42.2063 30.5188 42.5162 30.4293C42.8248 30.3398 43.1271 30.2982 43.4205 30.3045C43.7152 30.3108 43.9771 30.3662 44.2072 30.4721C44.4374 30.578 44.6803 30.7558 44.9358 31.0066C45.1913 31.2575 45.4392 31.5575 45.682 31.9093C45.9248 32.261 46.2006 32.7047 46.5092 33.2405L42.176 35.3849L42.1747 35.3836Z" fill="white" fill-opacity="0.8"/>
</svg>
