<svg width="52" height="52" viewBox="0 0 52 52" fill="none" xmlns="http://www.w3.org/2000/svg" id="upload">
<path d="M27.5117 26.7383H29.7617L26 23.0117L22.2383 26.7383H24.4883V29.7617H27.5117V26.7383ZM31.5195 24.5234C32.4805 24.5938 33.3008 24.9922 33.9805 25.7188C34.6602 26.4219 35 27.2656 35 28.25C35 29.2812 34.625 30.1719 33.875 30.9219C33.1484 31.6484 32.2695 32.0117 31.2383 32.0117H21.5C20.2578 32.0117 19.1914 31.5781 18.3008 30.7109C17.4336 29.8203 17 28.7539 17 27.5117C17 26.4102 17.3867 25.4258 18.1602 24.5586C18.957 23.668 19.9062 23.1641 21.0078 23.0469C21.5 22.1328 22.1914 21.3945 23.082 20.832C23.9727 20.2695 24.9453 19.9883 26 19.9883C27.2656 19.9883 28.4375 20.4336 29.5156 21.3242C30.6172 22.2148 31.2852 23.2812 31.5195 24.5234Z" fill="currentColor"/>
</svg>
